<svg width="900" height="600" viewBox="0 0 900 600" fill="none" xmlns="http://www.w3.org/2000/svg" role="img" aria-labelledby="title desc">
  <title id="title">YOURSKIN PLUS Skin Dew Lockup</title>
  <desc id="desc">A horizontal lockup using a dew and leaf mark for hydration-focused skincare lines.</desc>
  <rect width="900" height="600" fill="#FFFDF8"/>
  <g transform="translate(146 173)">
    <path d="M126 18C95 61 61 99 61 153C61 205 99 236 145 226C183 218 211 184 211 144C211 91 158 57 126 18Z" stroke="#143D2E" stroke-width="7" stroke-linecap="round" stroke-linejoin="round"/>
    <path d="M86 160C118 121 172 115 216 142C185 184 130 196 86 160Z" fill="#8C9F8C"/>
    <path d="M101 160C139 153 175 141 207 123" stroke="#FFFDF8" stroke-width="5" stroke-linecap="round"/>
    <path d="M193 51V82" stroke="#C5A66E" stroke-width="3" stroke-linecap="round"/>
    <path d="M177.5 66.5H208.5" stroke="#C5A66E" stroke-width="3" stroke-linecap="round"/>
  </g>
  <text x="424" y="282" fill="#143D2E" font-family="'Iowan Old Style', 'Bodoni 72', Georgia, serif" font-size="61" font-weight="400" letter-spacing="10">YOURSKIN</text>
  <text x="427" y="342" fill="#143D2E" font-family="'Iowan Old Style', 'Bodoni 72', Georgia, serif" font-size="33" font-weight="400" letter-spacing="12">PLUS</text>
  <path d="M428 371H701" stroke="#C5A66E" stroke-width="1.4"/>
  <text x="427" y="405" fill="#68746B" font-family="'Avenir Next', 'Helvetica Neue', sans-serif" font-size="12" font-weight="600" letter-spacing="4.6">HYDRATION &amp; RESILIENCE</text>
</svg>
